# xmcd
#
# Track frame offsets:
# 150
# 14232
# 29767
# 44650
# 57290
# 70830
# 83712
# 102572
# 121350
# 134685
# 150620
# 167002
# 180357
# 192755
# 207332
# 222565
#
# Disc length: 3125 seconds
#
#
# Revision: 0
# Processed by: cddbd v1.5.1PL2 Copyright (c) Steve Scherf et al.
# Submitted via: FreeRIP 2.945 
#
DISCID=f30c3310
DTITLE=Edith Piaf - Les Chansons Eternelles
DYEAR=1995
DGENRE=Français
TTITLE0=La vie en Rose
TTITLE1=L'hymne à l'amour
TTITLE2=Je n'en connais pas la fin
TTITLE3=Le petit monsieur triste
TTITLE4=Sur une colline
TTITLE5=Y'en a un de trop
TTITLE6=On danse sur ma chanson
TTITLE7=C'est la moindre des choses
TTITLE8=Jimmy c'est lui
TTITLE9=Ou sont-ils mes petits copains
TTITLE10=C'est un monsieur très distingué
TTITLE11=Simple comme bonjour
TTITLE12=Un coin tout bleu
TTITLE13=J'ai qu'a l'regarder
TTITLE14=De l'autre côté de la rue
TTITLE15=Y'a pas d'printemps
EXTD=
EXTT0=
EXTT1=
EXTT2=
EXTT3=
EXTT4=
EXTT5=
EXTT6=
EXTT7=
EXTT8=
EXTT9=
EXTT10=
EXTT11=
EXTT12=
EXTT13=
EXTT14=
EXTT15=
PLAYORDER=
